<?xml version="1.0" standalone="no"?>
<!DOCTYPE svg PUBLIC "-//W3C//DTD SVG 20010904//EN"
 "http://www.w3.org/TR/2001/REC-SVG-20010904/DTD/svg10.dtd">
<svg version="1.0" xmlns="http://www.w3.org/2000/svg"
 width="546.000000pt" height="546.000000pt" viewBox="0 0 546.000000 546.000000"
 preserveAspectRatio="xMidYMid meet">
<metadata>
Created by potrace 1.14, written by Peter Selinger 2001-2017
</metadata>
<g transform="translate(0.000000,546.000000) scale(0.100000,-0.100000)"
fill="#000000" stroke="none">
<path d="M2470 5449 c-30 -3 -82 -9 -115 -13 -33 -4 -94 -14 -135 -23 -41 -8
-82 -16 -90 -18 -64 -13 -196 -51 -296 -86 -871 -300 -1539 -1035 -1758 -1934
-22 -91 -28 -118 -42 -210 -3 -16 -10 -57 -15 -90 -26 -147 -17 -592 15 -785
71 -434 247 -846 510 -1195 33 -44 62 -82 65 -85 3 -3 28 -32 56 -65 192 -233
492 -471 796 -633 218 -116 533 -227 759 -266 19 -3 44 -8 55 -10 34 -6 116
-17 195 -26 98 -10 435 -10 525 0 85 10 163 21 190 26 11 3 36 7 55 10 19 3
87 18 150 34 968 241 1741 1008 1985 1969 34 135 53 240 72 391 16 131 8 567
-12 670 -3 14 -8 45 -11 70 -3 25 -8 53 -10 62 -3 10 -8 30 -10 45 -12 65 -56
228 -87 320 -90 261 -194 464 -361 703 -44 63 -83 117 -87 120 -3 3 -29 32
-56 65 -116 140 -294 308 -453 426 -297 221 -638 381 -990 465 -224 53 -395
72 -650 71 -107 0 -220 -4 -250 -8z m520 -214 c202 -26 351 -58 513 -109 440
-141 828 -403 1157 -782 81 -93 215 -290 284 -416 113 -207 225 -522 259 -728
3 -14 8 -45 12 -70 4 -25 9 -54 11 -64 18 -97 25 -414 12 -557 -84 -926 -672
-1733 -1529 -2097 -144 -62 -340 -123 -464 -147 -124 -23 -202 -35 -275 -41
-150 -14 -482 -8 -576 10 -24 5 -76 13 -131 22 -57 8 -258 61 -343 91 -619
213 -1138 663 -1432 1243 -121 238 -210 507 -243 735 -3 23 -7 51 -10 63 -26
135 -26 532 0 687 52 308 115 515 230 750 298 612 825 1076 1473 1294 98 33
304 84 385 96 27 3 58 8 70 11 11 2 57 6 101 10 45 3 82 8 84 9 6 5 364 -3
412 -10z"/>
<path d="M2680 4861 l-35 -29 -2 -278 c-1 -154 3 -293 8 -309 18 -59 102 -85
157 -49 45 29 49 60 47 349 -1 292 -3 303 -55 330 -44 23 -82 19 -120 -14z"/>
<path d="M1414 3991 c-41 -25 -58 -85 -37 -129 18 -37 145 -162 167 -163 9 -1
22 -2 29 -3 21 -3 64 15 82 34 26 28 34 80 19 112 -15 29 -126 143 -155 158
-28 15 -71 12 -105 -9z"/>
<path d="M3932 3994 c-35 -24 -112 -102 -137 -140 -19 -28 -22 -40 -14 -71 8
-38 47 -82 75 -84 8 -1 20 -2 27 -3 32 -5 72 22 136 90 79 83 85 100 59 167
-20 51 -100 74 -146 41z"/>
<path d="M2620 3894 c-191 -30 -293 -60 -416 -122 -300 -152 -527 -436 -608
-762 -51 -205 -39 -469 31 -663 61 -171 153 -317 281 -444 289 -288 678 -396
1104 -308 50 10 172 57 248 95 295 149 524 437 604 760 52 212 40 465 -31 665
-141 392 -463 672 -875 761 -62 13 -290 26 -338 18z m234 -218 c289 -31 575
-232 718 -503 248 -470 66 -1045 -408 -1290 -387 -201 -859 -111 -1149 219
-222 252 -294 590 -194 914 103 335 412 603 751 653 122 18 164 19 282 7z"/>
<path d="M2681 2908 c-72 -20 -126 -84 -135 -159 -12 -113 90 -215 203 -203
151 17 219 199 116 308 -50 53 -116 72 -184 54z"/>
<path d="M521 2819 c-60 -36 -70 -108 -22 -161 l29 -33 286 -1 c278 -2 287 -1
318 20 59 40 62 127 5 170 -27 20 -40 21 -308 22 -252 1 -281 -1 -308 -17z"/>
<path d="M4327 2816 c-59 -40 -60 -134 0 -173 25 -16 55 -18 316 -18 l289 0
29 33 c40 45 40 99 0 144 l-29 33 -286 1 c-279 2 -287 1 -319 -20z"/>
<path d="M1544 1879 c-17 -5 -61 -40 -102 -83 -63 -64 -72 -79 -72 -110 0 -76
53 -125 122 -112 34 6 154 111 177 154 16 30 14 84 -5 111 -13 19 -74 54 -86
50 -2 0 -17 -5 -34 -10z"/>
<path d="M3855 1823 c-51 -12 -88 -76 -73 -129 9 -34 137 -169 170 -180 65
-20 138 37 138 108 0 36 -7 47 -67 110 -86 88 -114 103 -168 91z"/>
<path d="M2341 1299 c-37 -8 -60 -26 -71 -54 -9 -24 -4 -34 158 -320 68 -121
149 -265 180 -320 30 -55 64 -110 75 -123 25 -27 68 -29 91 -3 10 11 108 179
217 373 215 380 220 392 167 431 -26 19 -43 20 -407 21 -209 1 -394 -2 -410
-5z"/>
</g>
</svg>
